<svg xmlns="http://www.w3.org/2000/svg" xmlns:xlink="http://www.w3.org/1999/xlink" version="1.1" id="Layer_1" x="0px" y="0px" width="100%" viewBox="0 0 480 480" enable-background="new 0 0 480 480" xml:space="preserve">
<path fill="#ffffff" opacity="1.000000" stroke="none" d=" M481.000000,364.531342   C452.848114,353.800568 424.737213,342.495758 396.505341,331.501740   C391.596771,329.590271 389.445221,327.126038 389.564972,321.660583   C389.897034,306.506287 389.607056,291.339386 389.726166,276.178711   C389.757294,272.221375 388.926025,271.171295 384.528259,271.972260   C367.698761,275.037445 350.755127,277.472656 333.862091,280.192810   C303.513550,285.079529 273.181671,290.070679 242.822906,294.892853   C203.921295,301.071960 164.963242,306.903992 126.098335,313.303528   C92.484726,318.838318 58.726418,323.486420 25.242388,329.838287   C19.034229,331.015930 12.753216,332.849060 5.768626,332.191345   C6.870662,328.533966 9.617764,327.519196 12.068582,326.502380   C23.865610,321.608002 35.697304,316.793396 47.575951,312.100464   C66.228851,304.731140 84.729218,296.998352 103.247269,289.298859   C130.032669,278.161835 157.041351,267.563202 183.888382,256.572693   C218.893143,242.242599 253.770767,227.600540 288.819885,213.380585   C318.146851,201.482178 347.470581,189.584930 376.667725,177.366745   C404.653076,165.655655 432.803070,154.329376 461.020050,143.186890   C467.512848,140.622971 473.789124,137.600662 480.643585,135.042313   C481.000000,211.354233 481.000000,287.708466 481.000000,364.531342  z"/>
</svg>